<svg xmlns="http://www.w3.org/2000/svg" viewBox="0 0 341.85 64" role="img" aria-label="Tampa Bay Chartbook"><title>Tampa Bay Chartbook</title>
<style>svg{--mk-ink:#12264c;--mk-paper:#fcf8eb;--mk-gold:#c5953b;--mk-gold-hi:#e4c87c;--mk-north:#a7186f}
.ink{fill:var(--mk-ink)}.paper{fill:var(--mk-paper)}.gold{fill:var(--mk-gold)}.hi{fill:var(--mk-gold-hi)}
.ring{fill:none;stroke:var(--mk-gold);stroke-width:1.1}.keyline{fill:none;stroke:var(--mk-gold);stroke-width:1.2}
.dk{fill:var(--mk-ink)}.dk.n{fill:var(--mk-north)}.lt{fill:var(--mk-paper);stroke:var(--mk-ink);stroke-width:.85;stroke-linejoin:round}
.hub{fill:var(--mk-gold);stroke:var(--mk-ink);stroke-width:.9}
.wm{fill:var(--lg-ink)}.wm-accent{fill:var(--lg-accent)}
svg{--lg-ink:#12264c;--lg-accent:#a7186f}
@media (prefers-color-scheme: dark){svg{--lg-ink:#f5ecd7;--lg-accent:#e9bb5b}}</style>
<rect class="ink" x=".6" y="21.6" width="62.8" height="20.8" rx="1.2"/>
<rect class="gold" x="1.8" y="22.8" width="60.4" height="18.4" rx=".6"/>
<path class="ink" d="M1.8 25.4h60.4v.9H1.8zM1.8 37.7h60.4v.9H1.8z"/>
<path class="ink" d="M5.6 32 7.6 29.2 9.6 32 7.6 34.8zM54.4 32l2-2.8 2 2.8-2 2.8z"/>
<ellipse class="gold" cx="32" cy="32" rx="23.4" ry="31.2"/>
<ellipse class="ink" cx="32" cy="32" rx="22.3" ry="30.1"/>
<ellipse class="gold" cx="32" cy="32" rx="20.3" ry="28.1"/>
<ellipse class="paper" cx="32" cy="32" rx="19" ry="26.8"/>
<ellipse class="ring" cx="32" cy="32" rx="17.1" ry="24.9"/>
<path class="dk" d="M32 32L39.42 24.58L33.63 33.63Z"/><path class="lt" d="M32 32L39.42 24.58L30.37 30.37Z"/><path class="dk" d="M32 32L39.42 39.42L30.37 33.63Z"/><path class="lt" d="M32 32L39.42 39.42L33.63 30.37Z"/><path class="dk" d="M32 32L24.58 39.42L30.37 30.37Z"/><path class="lt" d="M32 32L24.58 39.42L33.63 33.63Z"/><path class="dk" d="M32 32L24.58 24.58L33.63 30.37Z"/><path class="lt" d="M32 32L24.58 24.58L30.37 33.63Z"/><path class="dk" d="M32 32L47 32L32 35.5Z"/><path class="lt" d="M32 32L47 32L32 28.5Z"/><path class="dk" d="M32 32L17 32L32 28.5Z"/><path class="lt" d="M32 32L17 32L32 35.5Z"/><path class="dk" d="M32 32L32 53L28.5 32Z"/><path class="lt" d="M32 32L32 53L35.5 32Z"/><path class="dk n" d="M32 32L32 10.5L35.5 32Z"/><path class="lt" d="M32 32L32 10.5L28.5 32Z"/>
<circle class="hub" cx="32" cy="32" r="2.4"/>
<g transform="translate(78 0.97) scale(0.48)">
<g class="wm-accent"><g transform="translate(164.1 13)"><path d="M6.2 0V-10.2H0.5V-13.1H15.3V-10.2H9.6V0Z M23.1 0 29.6 -13.1H33.4L39.8 0H36.2L35.1 -2.3H27.7L26.6 0ZM28.9 -4.9H33.8L32.5 -7.8Q32.4 -8 32.2 -8.4Q32.1 -8.7 31.9 -9.1Q31.8 -9.5 31.6 -9.8Q31.5 -10.2 31.4 -10.2H31.3Q31.2 -9.9 31 -9.4Q30.8 -8.9 30.6 -8.5Q30.4 -8.1 30.3 -7.8Z M51.4 0V-13.1H56.7L59.3 -6.9Q59.5 -6.6 59.7 -6Q59.9 -5.5 60.1 -4.9Q60.3 -4.3 60.5 -3.9H60.6Q60.7 -4.3 60.9 -4.8Q61.2 -5.4 61.4 -5.9Q61.6 -6.5 61.7 -6.9L64.3 -13.1H69.5V0H66.1V-7.3Q66.1 -7.7 66.1 -8.1Q66.1 -8.6 66.1 -9Q66.1 -9.5 66.2 -9.8H66Q65.9 -9.5 65.7 -9Q65.6 -8.6 65.4 -8.1Q65.3 -7.7 65.1 -7.3L62 0H58.8L55.7 -7.3Q55.5 -7.8 55.3 -8.2Q55.1 -8.7 55 -9.1Q54.9 -9.5 54.8 -9.8H54.6Q54.6 -9.5 54.6 -9.1Q54.7 -8.7 54.7 -8.3Q54.7 -7.8 54.7 -7.3V0Z M82.4 0V-13.1H92.3Q93.6 -13.1 94.5 -12.5Q95.5 -11.9 96 -11Q96.5 -10 96.5 -8.7Q96.5 -7.4 96 -6.4Q95.4 -5.4 94.5 -4.9Q93.5 -4.3 92.2 -4.3H85.8V0ZM85.8 -7H91.3Q92.2 -7 92.7 -7.4Q93.2 -7.9 93.2 -8.7Q93.2 -9.2 93 -9.6Q92.8 -10 92.3 -10.2Q91.9 -10.4 91.3 -10.4H85.8Z M105.6 0 112 -13.1H115.9L122.3 0H118.6L117.5 -2.3H110.2L109.1 0ZM111.4 -4.9H116.3L115 -7.8Q114.9 -8 114.7 -8.4Q114.6 -8.7 114.4 -9.1Q114.2 -9.5 114.1 -9.8Q114 -10.2 113.9 -10.2H113.8Q113.6 -9.9 113.4 -9.4Q113.2 -8.9 113.1 -8.5Q112.9 -8.1 112.7 -7.8Z M149.4 0V-13.1H159.8Q160.8 -13.1 161.7 -12.6Q162.5 -12.2 163 -11.5Q163.5 -10.8 163.5 -9.8Q163.5 -9 163.2 -8.4Q162.9 -7.8 162.4 -7.4Q161.9 -7 161.3 -6.8V-6.8Q162 -6.6 162.6 -6.2Q163.2 -5.8 163.5 -5.1Q163.8 -4.5 163.8 -3.6Q163.8 -2.4 163.3 -1.6Q162.8 -0.8 161.8 -0.4Q160.9 0 159.8 0ZM152.7 -2.6H158.9Q159.5 -2.6 159.9 -2.9Q160.4 -3.3 160.4 -4Q160.4 -4.4 160.2 -4.7Q160 -5.1 159.7 -5.2Q159.3 -5.4 158.8 -5.4H152.7ZM152.7 -7.9H158.5Q159 -7.9 159.3 -8Q159.7 -8.2 159.8 -8.5Q160 -8.8 160 -9.2Q160 -9.8 159.6 -10.2Q159.2 -10.5 158.6 -10.5H152.7Z M174.7 0 181.2 -13.1H185L191.4 0H187.8L186.7 -2.3H179.3L178.2 0ZM180.5 -4.9H185.4L184.1 -7.8Q184 -8 183.8 -8.4Q183.7 -8.7 183.5 -9.1Q183.4 -9.5 183.2 -9.8Q183.1 -10.2 183.1 -10.2H182.9Q182.8 -9.9 182.6 -9.4Q182.4 -8.9 182.2 -8.5Q182 -8.1 181.9 -7.8Z M205.8 0V-5.2L199.3 -13.1H203.4L207.5 -7.9H207.6L211.7 -13.1H215.6L209.2 -5.2V0Z"/></g><path d="M4 3.9H142.1v1.2H4zM4 7.1H142.1v2.6H4zM402 3.9H540.2v1.2H402zM402 7.1H540.2v2.6H402zM151.1 1.3L156.3 6.5L151.1 11.7L145.9 6.5zM393 1.3L398.2 6.5L393 11.7L387.8 6.5z"/></g>
<g class="wm" transform="translate(2 116)"><path d="M41.6 1Q29.7 1 21.3 -4Q12.9 -9 8.5 -17.7Q4.1 -26.4 4.1 -37.5Q4.1 -48.7 8.5 -57.4Q12.9 -66 21.3 -71Q29.7 -76 41.6 -76Q46 -76 49.6 -74.5Q53.1 -73.1 56 -70.4L67.2 -75H67.8V-51.8H66.9Q63.9 -58.5 60.4 -63.7Q56.9 -68.9 52.5 -71.9Q48.2 -74.9 42.6 -74.9Q37.8 -74.9 34.6 -71.6Q31.4 -68.4 29.6 -63Q27.8 -57.6 27 -51Q26.3 -44.4 26.3 -37.5Q26.3 -30.7 27 -24Q27.8 -17.4 29.6 -12Q31.4 -6.6 34.6 -3.4Q37.8 -0.1 42.6 -0.1Q47.6 -0.1 51.5 -1.9Q55.4 -3.8 58.4 -6.9Q61.3 -10 63.7 -14.2Q66 -18.5 68 -23.2H68.8V0H68.2L57.9 -5.2Q54.8 -2.3 50.8 -0.6Q46.8 1 41.6 1Z M74.1 0V-0.8H81.1V-74.2H74.1V-75H99V-0.8H103.2V0ZM107.4 0V-0.8H111.6V-32.1Q111.6 -36.2 111.2 -38.4Q110.9 -40.6 110.1 -41.4Q109.2 -42.1 107.7 -42.1Q105.5 -42.1 103.8 -40.3Q102.2 -38.6 101.1 -35.6Q100 -32.7 99.5 -29.2Q99 -25.7 99 -22.3L98.3 -22.2Q98.3 -26 99 -30.3Q99.6 -34.7 101.4 -38.4Q103.2 -42.2 106.5 -44.6Q109.8 -47 115.2 -47Q120.6 -47 123.8 -45Q126.9 -43.1 128.2 -39.7Q129.5 -36.2 129.5 -31.9V-0.8H136.4V0Z M184.1 1Q180.2 1 177.2 0Q174.3 -1 172.6 -3Q170.9 -5 170.9 -8V-30.5Q170.9 -34.1 170.2 -37.6Q169.4 -41.2 167.3 -43.5Q165.2 -45.9 161.2 -45.9Q159.1 -45.9 156.4 -45.4Q153.7 -44.9 151.2 -43.7Q148.6 -42.6 147 -40.6Q145.4 -38.7 145.4 -35.7H144.6Q144.6 -39.3 147.5 -41.6Q150.4 -43.9 154.4 -43.9Q158.6 -43.9 161.6 -41.8Q164.6 -39.8 164.6 -35.9Q164.6 -31.9 161.5 -29.7Q158.5 -27.5 154.4 -27.5Q150.1 -27.5 147.3 -29.8Q144.5 -32 144.5 -35.7Q144.5 -38.9 146.2 -41Q147.9 -43.1 150.8 -44.4Q153.7 -45.7 157.2 -46.3Q160.7 -46.8 164.1 -46.8Q172.3 -46.8 177.8 -44.9Q183.3 -42.9 186.1 -39.3Q188.8 -35.6 188.8 -30.5V-5.3Q188.8 -3.7 189.7 -2.7Q190.5 -1.6 192.4 -1.6Q193.6 -1.6 195.7 -2.6Q197.7 -3.7 199.2 -6.5L199.7 -6.3Q198.1 -2.6 193.9 -0.8Q189.7 1 184.1 1ZM155.3 1Q148.8 1 144.9 -2.3Q141 -5.7 141 -11.4Q141 -18.1 146.9 -21.7Q152.7 -25.4 163.4 -25.4H175.5V-24.7H169.4Q166.1 -24.7 164 -22.8Q161.9 -20.9 161 -18.2Q160.1 -15.6 160.1 -13.3Q160.1 -11 160.6 -9.2Q161 -7.5 162.1 -6.4Q163.1 -5.4 164.7 -5.4Q166.4 -5.4 167.8 -6.8Q169.2 -8.2 170 -11Q170.9 -13.8 170.9 -18.1H171.4Q171.4 -12 169.5 -7.7Q167.6 -3.4 164 -1.2Q160.4 1 155.3 1Z M225.9 -21.6Q225.9 -27.2 226.6 -31.9Q227.3 -36.5 229 -39.8Q230.7 -43.2 233.5 -45.1Q236.3 -47 240.5 -47Q244.4 -47 247.1 -45.1Q249.8 -43.3 251.2 -40.4Q252.6 -37.5 252.6 -34.4Q252.6 -30.2 249.7 -27.1Q246.8 -23.9 242.4 -23.9Q237.9 -23.9 235 -26.8Q232 -29.7 232 -33.6Q232 -37.9 234.8 -40.9Q237.5 -43.9 242.2 -43.9Q245.2 -43.9 247.5 -42.6Q249.9 -41.2 251.2 -39Q252.5 -36.8 252.5 -34.4H251.8Q251.8 -37.3 250.5 -40Q249.1 -42.7 246.6 -44.5Q244.1 -46.2 240.4 -46.2Q236.5 -46.2 233.9 -44.4Q231.2 -42.6 229.6 -39.3Q227.9 -36 227.2 -31.5Q226.4 -27 226.4 -21.6ZM226.4 -46V-0.8H234.8V0H201.5V-0.8H208.5V-45.2H201.5V-46Z M275 0.7Q269.5 0.7 266.6 -0.8Q263.7 -2.2 262.5 -5.1Q261.4 -7.9 261.4 -12V-56Q265.6 -56 270.7 -56.6Q275.8 -57.2 279.3 -59V-9.7Q279.3 -5.9 280.2 -4.2Q281.1 -2.4 283.1 -2.4Q285.3 -2.4 288 -4.3Q290.6 -6.1 292.3 -10.4L293 -10.1Q291.2 -5.4 286.7 -2.3Q282.2 0.7 275 0.7ZM254.1 -45.2V-46H290V-45.2Z M335 1Q328.4 1 324.4 -3.6Q320.4 -8.2 319.3 -16.7V0H294.5V-0.8H301.4V-74.2H294.5V-75H319.3V-29.4Q320.4 -37.8 324.4 -42.4Q328.4 -46.9 335 -46.9Q340.4 -46.9 345.3 -44.1Q350.1 -41.2 353.1 -35.9Q356.1 -30.5 356.1 -23Q356.1 -15.5 353.1 -10.1Q350.1 -4.8 345.3 -1.9Q340.4 1 335 1ZM330.6 -1.1Q332.6 -1.1 333.7 -3.5Q334.9 -5.8 335.3 -10.7Q335.8 -15.5 335.8 -23Q335.8 -30.5 335.3 -35.3Q334.9 -40.1 333.7 -42.4Q332.6 -44.7 330.6 -44.7Q328 -44.7 325.4 -42.4Q322.8 -40 321.1 -35.2Q319.3 -30.4 319.3 -23Q319.3 -15.6 321.1 -10.8Q322.8 -5.9 325.4 -3.5Q328 -1.1 330.6 -1.1Z M387.3 1Q379.4 1 373.6 -2.3Q367.9 -5.6 364.8 -11.1Q361.7 -16.5 361.7 -23Q361.7 -29.5 364.8 -35Q367.9 -40.4 373.6 -43.7Q379.4 -47 387.3 -47Q395.2 -47 401 -43.7Q406.7 -40.4 409.8 -35Q412.9 -29.5 412.9 -23Q412.9 -16.5 409.8 -11.1Q406.7 -5.6 401 -2.3Q395.2 1 387.3 1ZM387.3 0.2Q389.1 0.2 390.3 -1.4Q391.6 -3 392.5 -6.2Q393.4 -9.3 393.9 -13.6Q394.3 -17.8 394.3 -23Q394.3 -28.2 393.9 -32.4Q393.4 -36.7 392.5 -39.8Q391.6 -43 390.3 -44.6Q389.1 -46.2 387.3 -46.2Q385.6 -46.2 384.3 -44.6Q382.9 -43 382 -39.8Q381.2 -36.7 380.7 -32.4Q380.2 -28.2 380.2 -23Q380.2 -17.8 380.7 -13.6Q381.2 -9.3 382 -6.2Q382.9 -3 384.3 -1.4Q385.6 0.2 387.3 0.2Z M444 1Q436.1 1 430.4 -2.3Q424.7 -5.6 421.6 -11.1Q418.5 -16.5 418.5 -23Q418.5 -29.5 421.6 -35Q424.7 -40.4 430.4 -43.7Q436.1 -47 444 -47Q452 -47 457.7 -43.7Q463.5 -40.4 466.6 -35Q469.7 -29.5 469.7 -23Q469.7 -16.5 466.6 -11.1Q463.5 -5.6 457.7 -2.3Q452 1 444 1ZM444.1 0.2Q445.8 0.2 447.1 -1.4Q448.4 -3 449.3 -6.2Q450.2 -9.3 450.6 -13.6Q451.1 -17.8 451.1 -23Q451.1 -28.2 450.6 -32.4Q450.2 -36.7 449.3 -39.8Q448.4 -43 447.1 -44.6Q445.8 -46.2 444 -46.2Q442.3 -46.2 441 -44.6Q439.7 -43 438.8 -39.8Q437.9 -36.7 437.4 -32.4Q437 -28.2 437 -23Q437 -17.8 437.4 -13.6Q437.9 -9.3 438.8 -6.2Q439.7 -3 441 -1.4Q442.3 0.2 444.1 0.2Z M473.7 0V-0.8H482.6V-74.2H473.7V-75H500.5V-0.8H504.9V0ZM508.2 0V-0.8H513.5L496.2 -27L523.9 -45.2H511.6V-46H533.7V-45.2H525L510.2 -35.4L535.5 -0.8H539.8V0Z"/></g></g></svg>
